<?xml version="1.0" standalone="no"?>
<!DOCTYPE svg PUBLIC "-//W3C//DTD SVG 20010904//EN"
 "http://www.w3.org/TR/2001/REC-SVG-20010904/DTD/svg10.dtd">
<svg version="1.0" xmlns="http://www.w3.org/2000/svg"
 width="458.000000pt" height="128.000000pt" viewBox="0 0 458.000000 128.000000"
 preserveAspectRatio="xMidYMid meet">
<metadata>
Created by potrace 1.10, written by Peter Selinger 2001-2011
</metadata>
<g transform="translate(0.000000,128.000000) scale(0.100000,-0.100000)"
fill="#009700" stroke="none">
<path d="M505 1265 c-133 -29 -218 -76 -316 -175 -154 -155 -217 -360 -174
-565 57 -272 299 -483 575 -501 246 -17 490 125 597 346 52 108 67 172 66 290
-4 388 -374 687 -748 605z m5 -388 l5 -169 40 32 c92 74 187 90 281 46 168
-78 208 -339 73 -475 -82 -82 -228 -107 -335 -57 -28 13 -55 29 -58 35 -12 18
-23 12 -36 -19 -7 -17 -16 -31 -21 -31 -12 -2 -46 -2 -59 0 -6 1 -11 131 -12
354 l-3 352 -57 3 -58 3 0 43 c0 23 3 46 7 50 4 3 57 5 117 4 l111 -3 5 -168z"/>
<path d="M622 692 c-18 -10 -51 -35 -73 -56 l-39 -39 0 -103 c0 -102 0 -103
29 -123 43 -31 81 -42 138 -42 80 0 136 38 168 113 33 81 6 195 -57 242 -38
27 -123 32 -166 8z"/>
<path d="M1390 930 c-24 -24 -25 -49 -6 -76 11 -14 26 -19 61 -19 51 0 75 20
75 61 0 50 -91 73 -130 34z"/>
<path d="M3220 930 c-27 -27 -25 -55 6 -79 51 -40 124 -17 124 39 0 55 -88 82
-130 40z"/>
<path d="M2470 905 l0 -35 50 0 c36 0 50 -4 50 -14 0 -7 -49 -130 -109 -272
l-109 -259 -56 -3 -56 -3 0 -39 0 -40 166 0 165 0 -3 38 -3 37 -57 3 c-37 2
-58 7 -57 15 0 7 13 44 28 82 l27 70 158 0 157 0 30 -75 c16 -41 29 -78 29
-82 0 -4 -24 -8 -52 -10 l-53 -3 -3 -37 -3 -38 166 0 166 0 -3 38 -3 37 -53 5
-54 5 -113 265 c-62 146 -111 268 -108 273 2 4 24 7 49 7 44 0 44 0 44 35 l0
35 -195 0 -195 0 0 -35z m261 -193 l57 -142 -125 0 c-96 0 -124 3 -120 13 3 6
29 72 58 145 29 73 57 131 63 129 6 -2 36 -67 67 -145z"/>
<path d="M1875 731 c-117 -32 -189 -111 -202 -220 -24 -204 201 -346 394 -247
107 54 157 177 121 298 -15 51 -77 121 -131 147 -48 23 -138 34 -182 22z m154
-99 c48 -35 65 -69 69 -135 3 -50 -1 -70 -20 -106 -32 -62 -75 -83 -157 -79
-59 4 -66 7 -101 45 -82 87 -59 236 43 284 50 24 128 20 166 -9z"/>
<path d="M3690 731 c-73 -23 -139 -81 -167 -150 -21 -49 -20 -147 1 -196 51
-121 197 -183 326 -141 51 17 130 63 130 75 -1 3 -10 17 -21 30 -17 21 -23 23
-37 13 -77 -54 -162 -67 -229 -35 -68 32 -105 123 -83 204 37 136 206 172 297
64 55 -66 63 -61 63 40 l0 85 -30 0 c-25 0 -30 -4 -30 -25 0 -31 -5 -31 -41 0
-47 39 -120 54 -179 36z"/>
<path d="M4165 726 c-58 -22 -95 -67 -95 -117 0 -84 49 -124 211 -173 95 -28
122 -50 117 -92 -9 -78 -160 -63 -261 25 -26 23 -42 31 -57 26 -18 -6 -20 -15
-20 -81 l0 -74 40 0 c36 0 40 2 40 26 0 14 3 24 8 22 106 -55 175 -68 247 -48
59 17 105 67 105 116 0 77 -51 122 -185 165 -89 28 -141 54 -149 74 -7 20 8
51 34 65 52 28 173 -8 218 -65 11 -14 29 -25 41 -25 19 0 21 5 21 75 l0 75
-35 0 c-29 0 -35 -4 -35 -21 0 -11 -3 -19 -7 -17 -107 55 -174 67 -238 44z"/>
<path d="M1300 680 l0 -40 55 0 55 0 0 -159 0 -160 -52 -3 -53 -3 -3 -37 -3
-38 155 0 156 0 0 40 0 40 -55 0 -55 0 0 200 0 200 -100 0 -100 0 0 -40z"/>
<path d="M3130 680 l0 -40 55 0 55 0 0 -159 0 -160 -52 -3 -53 -3 -3 -37 -3
-38 161 0 161 0 -3 38 -3 37 -52 3 -53 3 -2 197 -3 197 -102 3 -103 3 0 -41z"/>
</g>
</svg>
