<?xml version="1.0" standalone="no"?>
<!DOCTYPE svg PUBLIC "-//W3C//DTD SVG 20010904//EN"
 "http://www.w3.org/TR/2001/REC-SVG-20010904/DTD/svg10.dtd">
<svg version="1.0" xmlns="http://www.w3.org/2000/svg"
 width="1374.000000pt" height="384.000000pt" viewBox="0 0 1374.000000 384.000000"
 preserveAspectRatio="xMidYMid meet">
<metadata>
Created by potrace 1.10, written by Peter Selinger 2001-2011
</metadata>
<g transform="translate(0.000000,384.000000) scale(0.100000,-0.100000)"
fill="#009700" stroke="none">
<path d="M1658 3819 c-12 -12 -31 -19 -54 -19 -53 0 -215 -38 -344 -80 -183
-61 -427 -196 -564 -314 -153 -131 -315 -313 -392 -440 -16 -26 -37 -60 -46
-74 -30 -47 -70 -124 -105 -207 -40 -91 -103 -281 -103 -308 0 -10 -5 -27 -11
-38 -20 -39 -33 -185 -33 -394 0 -206 9 -316 33 -405 7 -25 19 -72 28 -105 8
-33 21 -75 29 -93 8 -18 14 -37 14 -43 0 -25 104 -241 163 -339 146 -243 383
-480 627 -627 92 -55 306 -163 324 -163 8 0 30 -6 48 -14 18 -8 60 -22 93 -31
33 -9 74 -21 90 -27 33 -11 118 -22 300 -38 168 -15 444 9 580 50 39 12 84 25
100 29 17 4 40 13 52 19 12 7 29 12 38 12 25 0 268 125 365 187 182 118 361
283 489 451 99 132 200 317 264 487 73 192 125 525 113 714 -28 421 -148 754
-390 1077 -110 147 -354 373 -472 439 -27 15 -74 42 -104 60 -47 28 -145 76
-215 106 -11 5 -49 18 -85 29 -36 11 -79 25 -96 30 -16 6 -50 14 -75 19 -24 5
-62 14 -84 20 -22 6 -57 11 -78 11 -43 0 -81 16 -72 31 4 5 -73 9 -202 8 -192
-1 -209 -2 -225 -20z m-164 -699 l26 -10 0 -494 c0 -272 4 -497 8 -500 5 -3
43 26 85 64 43 38 101 85 130 104 66 42 199 106 219 106 9 0 32 7 51 15 52 21
271 21 346 -1 199 -58 342 -159 452 -321 110 -162 151 -307 151 -532 -1 -162
-28 -284 -93 -414 -99 -199 -274 -358 -464 -420 -140 -46 -143 -47 -318 -47
-145 0 -182 3 -237 21 -94 29 -215 90 -295 148 -38 28 -72 51 -76 51 -3 0 -24
-41 -47 -90 -29 -64 -47 -92 -64 -98 -35 -12 -186 -6 -203 8 -13 11 -15 144
-15 1054 0 797 -3 1045 -12 1054 -8 8 -57 12 -157 12 -188 0 -181 -6 -181 151
0 110 1 119 22 133 19 14 68 16 335 16 178 0 323 -4 337 -10z"/>
<path d="M1924 2096 c-128 -48 -235 -127 -350 -259 l-54 -62 0 -297 c0 -163 3
-304 6 -313 15 -37 186 -135 307 -175 97 -32 256 -32 353 0 175 57 294 178
356 359 19 56 22 88 23 206 0 157 -9 204 -62 306 -36 70 -113 156 -173 194
-109 68 -285 86 -406 41z"/>
<path d="M4247 2836 c-100 -37 -154 -109 -144 -192 14 -130 187 -203 330 -141
56 25 103 72 113 113 11 41 -2 110 -26 143 -48 69 -189 108 -273 77z"/>
<path d="M9738 2834 c-92 -28 -154 -116 -141 -200 8 -50 70 -115 129 -137 132
-47 296 16 319 124 20 91 -29 170 -130 208 -64 24 -111 26 -177 5z"/>
<path d="M7411 2802 c-11 -20 -8 -189 4 -200 3 -4 70 -9 148 -12 132 -5 142
-6 145 -25 1 -11 -17 -67 -41 -125 -95 -225 -259 -614 -342 -810 -48 -113
-106 -252 -130 -310 -23 -58 -69 -166 -101 -240 l-59 -135 -160 -5 -160 -5 -3
-113 -3 -112 488 2 488 3 3 96 c4 134 11 129 -189 129 -134 0 -161 2 -165 15
-7 18 160 473 182 495 13 13 77 15 432 18 229 1 436 0 458 -3 47 -7 29 28 151
-285 24 -63 51 -131 60 -151 8 -20 13 -47 11 -60 -3 -24 -3 -24 -152 -27 -92
-1 -155 -7 -163 -14 -10 -8 -13 -37 -11 -112 l3 -101 490 0 490 0 3 99 c2 64
-1 103 -9 112 -9 11 -45 14 -161 14 l-149 0 -43 93 c-24 50 -57 126 -74 167
-16 41 -39 95 -50 120 -11 25 -104 243 -207 485 -102 242 -195 458 -204 480
-62 136 -104 244 -105 270 l-1 30 125 2 c184 4 170 -6 170 117 0 85 -3 105
-16 110 -9 3 -269 6 -579 6 -533 0 -565 -1 -574 -18z m609 -269 c12 -27 26
-57 30 -68 9 -19 152 -380 190 -475 10 -25 38 -96 64 -159 25 -62 43 -118 40
-122 -7 -12 -721 -12 -729 0 -3 6 42 128 101 273 58 145 133 331 166 413 33
83 64 158 69 168 18 32 46 20 69 -30z"/>
<path d="M5675 2190 c-11 -5 -32 -9 -46 -9 -71 -2 -238 -75 -329 -144 -194
-147 -293 -349 -294 -602 -1 -373 238 -653 631 -739 291 -64 635 58 804 285
134 180 182 417 129 637 -26 107 -58 174 -129 270 -92 124 -205 205 -376 271
-79 30 -345 52 -390 31z m244 -236 c185 -52 296 -160 357 -344 27 -82 25 -262
-4 -356 -66 -215 -243 -344 -471 -344 -151 0 -249 39 -345 134 -75 74 -119
156 -140 260 -47 231 25 451 186 570 46 34 107 66 128 67 8 0 31 6 50 13 49
19 173 19 239 0z"/>
<path d="M11065 2181 c-250 -62 -434 -239 -524 -503 -72 -209 -37 -473 86
-660 79 -120 224 -237 353 -284 189 -68 400 -71 590 -7 132 44 350 180 350
219 0 25 -101 163 -120 164 -3 0 -39 -25 -80 -57 -132 -99 -256 -143 -407
-143 -153 0 -274 50 -371 154 -96 104 -142 225 -142 375 1 260 145 447 395
516 107 30 267 8 375 -51 64 -35 164 -135 200 -201 22 -40 32 -49 60 -51 18
-2 43 -1 56 2 l24 6 0 240 c0 154 -4 241 -10 245 -15 9 -164 10 -178 1 -7 -4
-12 -34 -12 -72 0 -80 -11 -82 -85 -16 -48 42 -88 67 -165 101 -85 38 -287 49
-395 22z"/>
<path d="M12588 2195 c-2 -3 -28 -9 -57 -15 -78 -15 -171 -64 -229 -122 -67
-66 -102 -142 -109 -233 -17 -217 127 -362 466 -471 58 -19 111 -34 117 -34
22 0 240 -77 289 -103 125 -64 170 -176 106 -266 -55 -76 -218 -103 -383 -62
-146 36 -353 156 -452 260 -24 25 -38 31 -72 31 -25 0 -50 -7 -63 -17 -21 -18
-22 -24 -19 -233 l3 -215 105 0 105 0 3 67 c4 93 13 97 102 42 200 -125 457
-174 648 -125 109 29 180 67 248 135 78 79 99 139 92 265 -6 101 -29 157 -88
219 -64 66 -180 137 -285 175 -65 23 -156 53 -220 72 -203 60 -292 98 -352
150 -106 91 -71 213 77 268 64 24 237 23 305 -1 149 -53 259 -134 368 -270 15
-20 23 -22 70 -16 28 4 55 12 59 18 5 6 7 106 5 221 l-2 210 -102 3 -102 3 -3
-58 c-3 -51 -6 -58 -24 -61 -12 -2 -33 7 -48 21 -25 23 -138 83 -201 106 -62
22 -183 41 -266 41 -47 0 -88 -2 -91 -5z"/>
<path d="M3894 2137 c-2 -7 -3 -60 -2 -118 l3 -104 160 -5 160 -5 3 -467 c2
-414 0 -468 -14 -482 -13 -13 -41 -16 -153 -16 -107 0 -141 -3 -150 -14 -8 -9
-11 -48 -9 -112 l3 -99 465 0 465 0 3 92 c4 137 10 133 -161 133 -98 0 -147 4
-155 12 -9 9 -12 154 -12 593 0 439 -3 584 -12 593 -18 18 -587 17 -594 -1z"/>
<path d="M9392 2138 c-8 -8 -12 -48 -12 -114 0 -122 -14 -114 188 -114 l142 0
0 -479 c0 -427 -2 -480 -16 -485 -9 -3 -76 -6 -149 -6 -170 0 -167 3 -163
-129 l3 -96 470 0 470 0 3 99 c2 62 -1 103 -8 110 -6 7 -73 13 -163 16 l-152
5 -3 589 c-1 415 -5 593 -13 603 -16 18 -579 19 -597 1z"/>
</g>
</svg>
